<svg xmlns="http://www.w3.org/2000/svg" width="16" height="16" viewBox="0 0 24 24" fill="currentColor">
  <path d="M12 2C6.48 2 2 6.48 2 12s4.48 10 10 10 10-4.48 10-10S17.52 2 12 2zm1.41 16.09V20h-2.67v-1.93c-1.71-.36-3.16-1.46-3.27-3.4h1.96c.1.93.66 1.64 2.08 1.64 1.51 0 2.1-.56 2.1-1.31 0-.82-.62-1.17-2.48-1.53-2.05-.41-3.43-1.17-3.43-3.03 0-1.89 1.46-2.97 3.23-3.34V6h2.67v1.95c1.86.45 2.79 1.86 2.85 3.39H14.3c-.05-.89-.64-1.51-1.86-1.51-1.17 0-1.93.53-1.93 1.27 0 .73.58 1.09 2.1 1.39 2.05.43 3.82 1.05 3.82 3.16 0 1.96-1.56 3.08-3.42 3.44z"/>
</svg>